# xmcd
#
# Track frame offsets:
# 150
# 15595
# 26440
# 38390
# 57257
# 67706
# 82902
# 98916
# 113993
# 128882
# 143696
# 157690
# 169520
# 180810
# 193870
# 207272
# 218260
# 236889
#
# Disc length: 3339 seconds
#
#
# Revision: 3
# Processed by: cddbd v1.5.2PL0 Copyright (c) Steve Scherf et al.
# Submitted via: FreeRIP 2.951 
#
DISCID=d40d0912
DTITLE=Kenny Rogers - The Country Colletion ( 18 Great Songs )
DYEAR=1900
DGENRE=
TTITLE0=Kenny Rogers - For The Good Times
TTITLE1=Kenny Rogers - She Even Woke Me Up To Say Goodbye
TTITLE2=Kenny Rogers - Me and Bobby McGee
TTITLE3=Kenny Rogers - The King Of Oak Street
TTITLE4=Kenny Rogers - Ticket To Nowhere
TTITLE5=Kenny Rogers - Tell It All Brother
TTITLE6=Kenny Rogers - The Way It Used To Be
TTITLE7=Kenny Rogers - Just Dropped In To See What Condition My Condition Is In
TTITLE8=Kenny Rogers - Heed The Call
TTITLE9=Kenny Rogers - Church Without A Name
TTITLE10=Kenny Rogers - But I Know I Love You
TTITLE11=Kenny Rogers - Poem For My Little Lady
TTITLE12=Kenny Rogers - Hurry Up Love
TTITLE13=Kenny Rogers - Run Through Your Mind
TTITLE14=Kenny Rogers - Sleep Comes Easy
TTITLE15=Kenny Rogers - Always Leaving Always Gone
TTITLE16=Kenny Rogers - I Believe In Music
TTITLE17=Kenny Rogers - Ruby Don't Take Your Love To Town
EXTD=
EXTT0=
EXTT1=
EXTT2=
EXTT3=
EXTT4=
EXTT5=
EXTT6=
EXTT7=
EXTT8=
EXTT9=
EXTT10=
EXTT11=
EXTT12=
EXTT13=
EXTT14=
EXTT15=
EXTT16=
EXTT17=
PLAYORDER=
